<svg xmlns="http://www.w3.org/2000/svg" xmlns:xlink="http://www.w3.org/1999/xlink" width="500" zoomAndPan="magnify" viewBox="0 0 375 374.999991" height="500" preserveAspectRatio="xMidYMid meet" version="1.0"><defs><g/></defs><g fill="#80e800" fill-opacity="1"><g transform="translate(18.505175, 270.941181)"><g><path d="M 72.546875 24.78125 C 61.734375 24.78125 53.882812 22.113281 49 16.78125 C 44.125 11.445312 41.6875 2.847656 41.6875 -9.015625 L 41.6875 -38.296875 C 41.6875 -47.316406 40.109375 -54.191406 36.953125 -58.921875 C 33.796875 -63.648438 29.140625 -66.015625 22.984375 -66.015625 L 12.390625 -66.015625 L 12.390625 -82.6875 L 22.984375 -82.6875 C 29.140625 -82.6875 33.796875 -85.050781 36.953125 -89.78125 C 40.109375 -94.519531 41.6875 -101.394531 41.6875 -110.40625 L 41.6875 -139.6875 C 41.6875 -151.707031 44.125 -160.34375 49 -165.59375 C 53.882812 -170.851562 61.734375 -173.484375 72.546875 -173.484375 L 94.1875 -173.484375 L 94.1875 -157.71875 L 80.65625 -157.71875 C 74.945312 -157.71875 70.515625 -157.003906 67.359375 -155.578125 C 64.210938 -154.148438 62 -151.632812 60.71875 -148.03125 C 59.445312 -144.425781 58.8125 -139.394531 58.8125 -132.9375 L 58.8125 -108.59375 C 58.8125 -99.882812 57.304688 -92.75 54.296875 -87.1875 C 51.296875 -81.632812 46.71875 -77.503906 40.5625 -74.796875 L 40.5625 -73.90625 C 46.71875 -71.195312 51.296875 -67.101562 54.296875 -61.625 C 57.304688 -56.144531 58.8125 -48.972656 58.8125 -40.109375 L 58.8125 -15.765625 C 58.8125 -9.304688 59.445312 -4.273438 60.71875 -0.671875 C 62 2.929688 64.210938 5.445312 67.359375 6.875 C 70.515625 8.300781 74.945312 9.015625 80.65625 9.015625 L 94.1875 9.015625 L 94.1875 24.78125 Z M 72.546875 24.78125 "/></g></g></g><g fill="#80e800" fill-opacity="1"><g transform="translate(131.157451, 270.941181)"><g><path d="M 4.5 0 L 45.28125 -164.484375 L 67.375 -164.484375 L 108.15625 0 L 89.671875 0 L 56.78125 -143.296875 L 55.875 -143.296875 L 22.984375 0 Z M 25.234375 -45.0625 L 25.234375 -60.828125 L 87.421875 -60.828125 L 87.421875 -45.0625 Z M 25.234375 -45.0625 "/></g></g></g><g fill="#80e800" fill-opacity="1"><g transform="translate(243.809727, 270.941181)"><g><path d="M 40.109375 24.78125 L 18.46875 24.78125 L 18.46875 9.015625 L 32 9.015625 C 37.707031 9.015625 42.132812 8.300781 45.28125 6.875 C 48.4375 5.445312 50.648438 2.929688 51.921875 -0.671875 C 53.203125 -4.273438 53.84375 -9.304688 53.84375 -15.765625 L 53.84375 -40.109375 C 53.84375 -48.972656 55.34375 -56.144531 58.34375 -61.625 C 61.351562 -67.101562 65.9375 -71.195312 72.09375 -73.90625 L 72.09375 -74.796875 C 65.9375 -77.503906 61.351562 -81.632812 58.34375 -87.1875 C 55.34375 -92.75 53.84375 -99.882812 53.84375 -108.59375 L 53.84375 -132.9375 C 53.84375 -139.394531 53.203125 -144.425781 51.921875 -148.03125 C 50.648438 -151.632812 48.4375 -154.148438 45.28125 -155.578125 C 42.132812 -157.003906 37.707031 -157.71875 32 -157.71875 L 18.46875 -157.71875 L 18.46875 -173.484375 L 40.109375 -173.484375 C 50.921875 -173.484375 58.765625 -170.851562 63.640625 -165.59375 C 68.523438 -160.34375 70.96875 -151.707031 70.96875 -139.6875 L 70.96875 -110.40625 C 70.96875 -101.394531 72.582031 -94.519531 75.8125 -89.78125 C 79.039062 -85.050781 83.660156 -82.6875 89.671875 -82.6875 L 100.265625 -82.6875 L 100.265625 -66.015625 L 89.671875 -66.015625 C 83.660156 -66.015625 79.039062 -63.648438 75.8125 -58.921875 C 72.582031 -54.191406 70.96875 -47.316406 70.96875 -38.296875 L 70.96875 -9.015625 C 70.96875 2.847656 68.523438 11.445312 63.640625 16.78125 C 58.765625 22.113281 50.921875 24.78125 40.109375 24.78125 Z M 40.109375 24.78125 "/></g></g></g></svg>